<?xml version="1.0" encoding="utf-8"?>
<!-- Generator: Adobe Illustrator 19.2.1, SVG Export Plug-In . SVG Version: 6.00 Build 0)  -->
<svg version="1.1" id="Capa_1" xmlns="http://www.w3.org/2000/svg" xmlns:xlink="http://www.w3.org/1999/xlink" x="0px" y="0px"
	 viewBox="0 0 400 342" style="enable-background:new 0 0 400 342;" xml:space="preserve">
<style type="text/css">
	.st0{fill:#010202;fill-opacity:0.2;}
	.st1{fill:#FFFFFF;}
	.st2{fill:#FCE4A9;}
	.st3{fill:#FBD16A;}
	.st4{fill:#FFEFCC;}
	.st5{fill:#FCDC93;}
	.st6{fill:#E7E7E7;}
</style>
<g id="_2674317510320">
	<path class="st0" d="M361.8,5.6C312.9-1.9,84.9-1.9,36,5.6C19.2,8.2,1.9,39.6,1.9,39.6L0.1,307.7c0,0-2.9,20.1,32.3,32.2
		c10.2,2.8,327,2.8,337.3,0c14-3.7,29.3-17.4,30.4-32.2c0-35.9-1.8-210.5-5.5-268C393.5,22.5,378.7,8.2,361.8,5.6z"/>
	<path class="st1" d="M360.1,1H38.5C20.5,2.5,4.3,21.3,2.8,35.5l0.3,268.1c-0.7,8.6,16.2,28.5,30.1,32.2c10.2,2.8,321.3,2.8,331.5,0
		c31.1-3.4,29.9-31.9,29.9-31.9s3.1-210.8-0.5-268.4C392.9,18.3,374.1,2.5,360.1,1z"/>
	<path class="st2" d="M356.5,4.3H41.4C25.1,6.8,9.3,20.5,8.2,37.2C4.8,93.1,4.8,246.1,8.5,298.6c1,14.4,15.8,27.7,29.3,31.3
		c9.9,2.7,312.3,2.7,322.2,0c29.6-5.3,29.6-31.6,29.6-31.6l-1-261.1C388.6,37.2,383.9,6.2,356.5,4.3z"/>
	<path class="st3" d="M382.8,287.1c0,0-2.7,28-28.8,30.8c-9.9,2.7-302.7,3.1-312.6,0.4C27.9,314.6,13,301.4,12,287
		c-2.9-42-5.8-160.6-5.1-221.7c-2.1,61.3-1.6,188.4,1.5,233.3c1,14.4,15.8,27.7,29.3,31.3c9.9,2.7,311.9,0.4,322.2,0
		c27.5-1,29.6-31.6,29.6-31.6s2.4-180.4,0-241.2C390.1,118.5,382.8,287.1,382.8,287.1z"/>
	<path class="st4" d="M382.9,286.3c0,0-2.2,29-28.9,31.6c-9.9,2.7-302.7,3.1-312.6,0.4C27.9,314.6,13,301.4,12,287
		C9.4,249.7,6.9,145.2,6.8,86.9c0,0,0,0,0,0c0,58.6,2.6,164.1,5.2,201.7c1,14.4,15.8,27.7,29.3,31.3c9.9,2.7,302.4,0.5,312.6-0.4
		c28.7-2.5,31.6-31.3,31.6-31.3s2-159,2-219.8C387.5,129.2,382.9,286.3,382.9,286.3z"/>
	<path class="st5" d="M13.7,263.1c0.5,8.9-2.2,17-1.7,23.9c1,14.4,15.8,27.7,29.3,31.3c9.9,2.7,302.4,1,312.6-0.4
		c10.6-1.4,24.3-7.5,28.8-30.8c0.4-2.1,0.1-5,0.3-7.3C275.6,310,144.3,298.3,13.7,263.1z"/>
	<path class="st4" d="M388.6,37.2c0,0-8.9-33-32.1-33H41.4C25.1,6.8,9.3,20.5,8.2,37.2c-0.5,8.1-0.9,17.6-1.3,28.1
		c0,1.9,0,3.8-0.1,5.8C7.3,60,7.7,49.9,8.2,41.3c0.5-8.5,7.2-16.3,12.7-22.2c-0.8,2-1,3.9-0.2,5.6c2.1,4.7,10.2,5.6,18.1,2
		c7.9-3.6,12.5-10.2,10.4-14.9c-0.9-2-3-3.4-5.6-3.9l312.9,0.3c26.1,3.4,32.1,33,32.1,33s0.7,13.2,1,20.8c0-1.6,0-3.3,0-4.9
		C389.3,49.9,388.6,37.2,388.6,37.2z"/>
	<path class="st6" d="M364.7,333.8c-10.2,2.8-321.3,2.8-331.5,0C19.3,330,4.1,316.4,3.1,301.6c-1.9-27.5,0.2-72.8,0.2-118.3
		c0,0.1,0,0.1,0,0.2c0,46.1-2.2,92.3-0.2,120.2c1,14.9,16.2,28.5,30.1,32.2c10.2,2.8,321.3,2.8,331.5,0c28.7-3,29.9-31.9,29.9-31.9
		s0-74.5,0-120.7c0,45.5,0,118.3,0,118.3S389.6,331,364.7,333.8z"/>
</g>
</svg>
