<?xml version="1.0" encoding="utf-8"?>
<!-- Generator: Adobe Illustrator 19.2.1, SVG Export Plug-In . SVG Version: 6.00 Build 0)  -->
<svg version="1.1" id="Capa_1" xmlns="http://www.w3.org/2000/svg" xmlns:xlink="http://www.w3.org/1999/xlink" x="0px" y="0px"
	 viewBox="0 0 350 40" style="enable-background:new 0 0 350 40;" xml:space="preserve">
<style type="text/css">
	.st0{fill:#2C7431;}
	.st1{fill:#CECDCD;}
	.st2{fill:#010202;fill-opacity:0.2;}
	.st3{fill:#FFFFFF;}
	.st4{fill:#6BB538;}
	.st5{fill:#E7E7E7;}
	.st6{opacity:5.000000e-002;fill:#010202;enable-background:new    ;}
	.st7{opacity:0.2;fill:#FFFFFF;enable-background:new    ;}
</style>
<g>
	<g id="_2674317511344_1_">
		<path class="st0" d="M343.2,0H6.6c-6.3,0-5,22.8-5,22.8l346.9-0.3C348.5,10.2,348.5,0.5,343.2,0z"/>
		<path class="st1" d="M1.5,22.8c1.4-0.1,2.8-0.1,4.2-0.2c0-9.3,0.6-18.9,3.1-21.8C8.2,0.3,7.5,0,6.6,0C2.3,0,1.6,11.6,1.5,22.8z"/>
		<path class="st1" d="M343.2,0c-0.8,0-1.5,0.3-2,0.8c3,2.7,3.3,12.2,3.2,21.5c1.4,0,2.8,0.1,4.2,0.1C348.6,11.4,348.1,0,343.2,0z"
			/>
	</g>
	<g id="g2128_1_">
		<path class="st2" d="M10.8,14.8c-0.1,6.8-0.5,13.2-0.5,16.4c0,4.8,4.1,8.8,9.2,8.8H175h155.5c5,0,9.2-3.9,9.2-8.8
			c0-3.2-0.5-9.5-0.6-16.5C282.6,12.9,64.8,12.8,10.8,14.8z"/>
		<path class="st3" d="M6.7,0C15.1,0,12,17.7,12,26.2c0,5,4.1,9,9,9h154h154c5,0,9-4,9-9c0-8.5-3.2-26.2,5.3-26.2H175H6.7z"/>
		<path class="st4" d="M12.6,0c7.9,0,5,13.9,5,21.4c0,4.4,3.8,7.9,8.5,7.9h149h149c4.7,0,8.5-3.6,8.5-7.9c0-7.5-3-21.4,5-21.4H175
			H12.6z"/>
		<path class="st5" d="M329,33.7H175H21c-4.8,0-8.7-3.8-9-8.5c0,0.4,0,0.8,0,1.1c0,5,4.1,9,9,9h154h154c5,0,9-4,9-9
			c0-0.3,0-0.7,0-1.1C337.7,29.9,333.8,33.7,329,33.7z"/>
		<path class="st6" d="M167.1,25.7c-61.3-1-149.6-5.9-149.6-4.3c0,0.4,0,0.8,0.1,1.3c0.6,3.8,4.2,6.7,8.4,6.7h149h149
			c4.1,0,7.5-2.7,8.3-6.4C298.9,24.3,196.8,26.1,167.1,25.7z"/>
		<path class="st7" d="M17,5.7c59-3,258.1-3.3,316.5-1.9c0.8-2.4,2.1-3.8,3.9-3.8H12.6C14.8,0,16.2,2.3,17,5.7z"/>
	</g>
</g>
</svg>
